<svg id="Layer_1" data-name="Layer 1" xmlns="http://www.w3.org/2000/svg" viewBox="0 0 1080 1080"><defs><style>.cls-1{fill:#fff;}</style></defs><rect width="1080" height="1080"/><path class="cls-1" d="M489.41,658.65l24.74,31.29c-20,6.88-38.69,2.29-45.63-18.94-7.66-23.44-10-48.57-15.68-72.72-3.95-16.74-10.48-32.87-14.3-49.63-3.61-15.81-5.18-32.09-8-50.06H398.88c33.5-24.14,39.23-65.19,11.79-107.37l9.66,36.25-6.14,2.87c-9.1-17-18.2-34.11-25.17-47.19-20.67,5.6-44.15,18.7-65.54,15.9-22.62-3-43.24-21.08-63.09-31.7l136-69-4.74-9.81c-30.37,11.51-60.19,24.85-91.24,34.07-41.6,12.35-59.6-4.86-49.45-47.37a342.7,342.7,0,0,1,36.34-91.71c.33,3.72.22,7.55,1.09,11.15,4.77,20,9.79,39.89,14.72,59.83,19.45-7.49,40.49-12.37,58-23.08,27.21-16.67,51.74-37.67,77.87-56.17,51.11-36.17,57.61-35.69,107.89,5,20.43-39.51,31.6-43.72,71.86-19.37,33.18,20.07,64,44.07,96.09,65.94,10.33,7,21,13.92,32.39,18.94,32.2,14.23,43.74,6.76,45.14-29.06.49-12.35-1.27-24.79.84-38,20.17,36.78,41.54,73.25,38.39,117.61-2.16,30.36-26,26.5-43.75,21.37-27.27-7.88-53.08-20.84-79.47-31.72-5.95-2.44-11.78-5.17-21.84-9.62,35.87,45.42,84.21,72.11,144.28,80.42-22.1,28.87-47.67,49.44-83.16,43.94-47.7-7.38-56.61-50.64-77.51-87.23,1,16.33,3.62,32.75,2.68,49s-5.37,32.38-8.28,48.56c-2.4-.51-5.45-.31-7-1.74-1.25-1.15-.69-4.27-.93-6.51l-8.15,1.91c5.73,24.56,11.45,49.12,17.08,73.22,2.45-.2-4.29.71-11,.83-6.56.11-13.14-.6-20.41-1-3.63,45.61-6.23,89.51-11.29,133.12-1.15,9.94-9.92,19.63-16.76,28.17-18.89,23.59-12.55,50.12,15.17,60.39-13.49,8-13.49,8-62.82-49.3-.82,17.61-.67,31.84-2.36,45.85A132.28,132.28,0,0,1,544.35,737c3.5-38.74-12.75-65.66-40.3-86.9Z"/><path d="M504,496.14c-1.79-2.54-3.72-5-5.32-7.64a50.05,50.05,0,0,1-7.25-25.33c-.45-20.77-.95-41.53-1.3-62.3-.47-27.87,19.52-50.13,47-52.55.89-.07,1.79-.1,2.54-.14.16,8.89.32,17.69.48,26.63a24.53,24.53,0,0,0-17.79,9.28A22.44,22.44,0,0,0,516.79,399c.37,21.46.76,42.93,1.38,64.39a23.83,23.83,0,0,0,16.38,22A24.33,24.33,0,0,0,561,478.1a22.65,22.65,0,0,0,5.77-15.26q-.16-16.56-.67-33.13c-.06-2.13.46-3.21,2.5-4.24,9-4.59,16.88-10.66,22.68-19.12.2-.28.45-.52.89-1,.09.77.19,1.26.2,1.76.38,17.92.93,35.84,1.09,53.76.18,20.08-8.32,35.76-25.74,45.69s-35.17,9.16-52.46-1c-1.72-1-3.34-2.2-5-3.31Z"/><path d="M505.31,266.39c3.47-2.28,6.77-4.88,10.43-6.78,32.6-17,72.33,5.27,74.24,41.93,1.17,22.4,1.49,44.87,1.45,67.31,0,25.75-22.09,48.42-47.79,50.1-.61,0-1.23.13-1.75.19l-.41-26.75a24.4,24.4,0,0,0,17.78-9.29,22.46,22.46,0,0,0,5.56-14.91c-.37-21.47-.77-42.93-1.38-64.4a23.82,23.82,0,0,0-16.2-21.88,24.36,24.36,0,0,0-26.53,7,22.93,22.93,0,0,0-5.9,15.63c.13,11.26.41,22.51.66,33.77,0,1.11-.07,1.88-1.29,2.44-9.82,4.55-18.17,10.92-24.36,19.92-.07.1-.22.15-.5.33-.05-.77-.11-1.44-.13-2.11-.36-17-.64-34-1.11-51.06-.34-12.6,2.83-24,10.58-34.08a6.7,6.7,0,0,0,.59-1.09Z"/><path class="cls-1" d="M304.13,934.21c-20.45,0-35.24-14.6-35.24-35.8s15.83-35.23,34.95-35.23c12.16,0,20.54,4.71,26.57,11.21l-9.33,9.14a22.82,22.82,0,0,0-17.24-7.17c-11.49,0-20.06,10.18-20.06,22,0,12.16,8.57,22.61,20.35,22.61,8.29,0,14.32-3.29,16.95-9.89H303.56V898.41h34.2C337.76,921.12,322.88,934.21,304.13,934.21Z"/><path class="cls-1" d="M394.94,933.08l-30.33-40c-.85-1.22-1.6-2.54-1.7-2.73,0,.09.19,1.79.19,3.39v39.38H348V864.31h13L391.36,904a13.25,13.25,0,0,1,1.7,2.83c0-.1-.19-1.79-.19-3.49v-39H408v68.77Z"/><path class="cls-1" d="M451,934.21c-15.83,0-29.4-10.17-29.4-29V864.31h15.17V905.2c0,9.32,5.94,16,14.23,16,8.48,0,15.17-6.69,15.17-16V864.31h15V905.2C481.15,924,467,934.21,451,934.21Z"/><path class="cls-1" d="M501,933.08H486.79l23.94-68.77h14.13Z"/><path class="cls-1" d="M533.8,933.08V864.31h15.08v56.05h24.49v12.72Z"/><path class="cls-1" d="M583.73,933.08V864.31h15.08v68.77Z"/><path class="cls-1" d="M659.86,933.08l-30.34-40a30.11,30.11,0,0,1-1.69-2.73c0,.09.18,1.79.18,3.39v39.38H612.94V864.31h13L656.28,904a14.23,14.23,0,0,1,1.7,2.83c0-.1-.19-1.79-.19-3.49v-39h15.07v68.77Z"/><path class="cls-1" d="M715.91,934.21c-15.83,0-29.39-10.17-29.39-29V864.31h15.17V905.2c0,9.32,5.93,16,14.22,16,8.48,0,15.17-6.69,15.17-16V864.31h15V905.2C746.06,924,731.93,934.21,715.91,934.21Z"/><path class="cls-1" d="M796.55,933.08l-13.94-24.3-13.75,24.3H752.09l22-37.49-18.65-31.28h16.67l10.46,18,9.89-18h16.87L790.9,895.59l22.52,37.49Z"/><rect class="cls-1" x="497.2" y="781.67" width="85.6" height="14.27" rx="7.13"/></svg>