<svg xmlns="http://www.w3.org/2000/svg" viewBox="0 0 1066.21 1080"><defs><style>.cls-1{fill:#fff;}</style></defs><g id="Layer_2" data-name="Layer 2"><g id="Layer_1-2" data-name="Layer 1"><path class="cls-1" d="M440.69,936.89,485.89,994c-36.62,12.57-70.67,4.2-83.35-34.6-14-42.82-18.27-88.72-28.66-132.84-7.2-30.57-19.13-60-26.12-90.65-6.59-28.89-9.47-58.63-14.52-91.45H275.32c61.19-44.11,71.65-119.09,21.54-196.14q8.82,33.11,17.63,66.21l-11.21,5.26-46-86.22c-37.77,10.22-80.65,34.16-119.73,29-41.31-5.41-79-38.51-115.24-57.9l248.39-126-8.65-17.92c-55.48,21-110,45.39-166.68,62.23-76,22.56-108.87-8.88-90.32-86.53A625.94,625.94,0,0,1,71.43,69c.62,6.8.42,13.8,2,20.37,8.73,36.49,17.89,72.87,26.9,109.29,35.52-13.68,74-22.6,105.87-42.15,49.71-30.46,94.52-68.82,142.26-102.61,93.36-66.08,105.23-65.19,197.09,9,37.32-72.16,57.73-79.85,131.27-35.38C737.44,64.21,793.68,108.07,852.35,148c18.87,12.84,38.4,25.41,59.18,34.59,58.83,26,79.89,12.35,82.46-53.09.88-22.56-2.32-45.28,1.54-69.45,36.84,67.19,75.88,133.81,70.11,214.85-3.94,55.45-47.5,48.41-79.92,39-49.81-14.39-97-38.07-145.18-57.94-10.85-4.47-21.5-9.46-39.89-17.59,65.53,83,153.84,131.74,263.58,146.92-40.38,52.75-87.09,90.32-151.93,80.27-87.12-13.49-103.4-92.5-141.58-159.35,1.9,29.83,6.61,59.82,4.9,89.45s-9.83,59.15-15.13,88.71c-4.4-.92-10-.57-12.81-3.18-2.28-2.09-1.26-7.79-1.7-11.89l-14.89,3.49c10.46,44.87,20.93,89.73,31.2,133.76,4.47-.37-7.83,1.3-20.16,1.51-12,.2-24-1.1-37.29-1.81-6.63,83.33-11.37,163.52-20.62,243.18-2.11,18.17-18.13,35.86-30.62,51.47-34.51,43.08-22.92,91.55,27.72,110.32-24.64,14.7-24.64,14.7-114.76-90.06-1.5,32.16-1.23,58.16-4.31,83.76a241.49,241.49,0,0,1-21.2,75c6.4-70.77-23.29-120-73.61-158.75Z"/><path d="M467.27,640c-3.26-4.64-6.79-9.12-9.73-14a91.45,91.45,0,0,1-13.23-46.26c-.83-37.94-1.74-75.88-2.38-113.82-.86-50.91,35.66-91.58,85.94-96,1.62-.14,3.26-.18,4.64-.25.29,16.23.58,32.31.87,48.63-12.87.85-23.91,6.57-32.49,17-6.53,7.9-10.36,17-10.18,27.24.67,39.21,1.38,78.42,2.52,117.62a43.48,43.48,0,0,0,29.93,40.11,44.41,44.41,0,0,0,48.35-13.24c6.84-8,10.63-17.33,10.53-27.87-.19-20.17-.63-40.35-1.21-60.52-.12-3.9.84-5.87,4.56-7.76,16.49-8.37,30.84-19.46,41.44-34.92.35-.51.81-.95,1.61-1.89.17,1.41.35,2.32.37,3.23.7,32.73,1.7,65.47,2,98.21.33,36.67-15.19,65.32-47,83.46s-64.25,16.72-95.84-1.86c-3.14-1.84-6.09-4-9.13-6Z"/><path d="M469.73,220.32c6.34-4.16,12.36-8.92,19-12.39,59.56-31,132.13,9.62,135.63,76.59,2.13,40.93,2.72,82,2.64,123-.09,47-40.34,88.47-87.29,91.53-1.12.08-2.25.24-3.21.35-.25-16.47-.49-32.54-.74-48.86,12.87-.81,23.89-6.57,32.47-17,6.52-7.91,10.34-17,10.17-27.25-.68-39.21-1.4-78.43-2.52-117.64a43.49,43.49,0,0,0-29.6-40,44.48,44.48,0,0,0-48.46,12.89,41.83,41.83,0,0,0-10.78,28.55c.24,20.56.75,41.11,1.21,61.67,0,2-.13,3.44-2.36,4.47-17.93,8.31-33.2,19.94-44.5,36.39-.13.18-.39.26-.91.6-.09-1.41-.21-2.63-.24-3.85-.66-31.09-1.17-62.19-2-93.28-.63-23,5.16-43.89,19.32-62.25a13.11,13.11,0,0,0,1.07-2Z"/></g></g></svg>