<svg id="Layer_1" data-name="Layer 1" xmlns="http://www.w3.org/2000/svg" viewBox="0 0 1080 1080"><defs><style>.cls-1{fill:#fff;}</style></defs><rect width="1080" height="1080"/><path class="cls-1" d="M483.91,780.86l27.43,34.69c-22.22,7.63-42.89,2.54-50.58-21-8.49-26-11.09-53.84-17.39-80.62-4.37-18.55-11.61-36.44-15.85-55-4-17.54-5.75-35.58-8.81-55.5H383.55c37.14-26.77,43.49-72.27,13.07-119l10.71,40.18-6.81,3.2c-10.08-18.92-20.17-37.83-27.9-52.33-22.92,6.21-48.95,20.74-72.66,17.63C274.89,489.77,252,469.69,230,457.92l150.74-76.46q-2.62-5.44-5.24-10.88c-33.67,12.76-66.74,27.55-101.16,37.77C228.24,422,208.29,403,219.54,355.84a380.23,380.23,0,0,1,40.28-101.68c.38,4.13.26,8.37,1.21,12.36,5.3,22.15,10.86,44.23,16.33,66.33,21.55-8.3,44.88-13.71,64.25-25.58C371.78,288.78,399,265.5,427.94,245c56.66-40.1,63.87-39.56,119.61,5.49,22.65-43.8,35-48.46,79.66-21.48,36.79,22.25,70.93,48.87,106.53,73.11,11.45,7.8,23.31,15.43,35.92,21,35.7,15.77,48.48,7.49,50-32.22.54-13.69-1.41-27.48.93-42.15,22.36,40.78,46,81.21,42.56,130.39-2.4,33.65-28.83,29.38-48.51,23.69-30.23-8.73-58.84-23.1-88.1-35.16-6.59-2.72-13.05-5.74-24.21-10.67,39.77,50.35,93.36,79.94,160,89.16-24.51,32-52.86,54.81-92.21,48.71-52.87-8.19-62.75-56.14-85.92-96.71,1.15,18.11,4,36.31,3,54.29s-6,35.9-9.18,53.84c-2.66-.57-6-.35-7.77-1.94-1.39-1.27-.76-4.72-1-7.21l-9,2.12c6.35,27.23,12.7,54.46,18.94,81.18,2.71-.23-4.76.78-12.24.91-7.28.12-14.57-.67-22.63-1.1-4,50.57-6.9,99.24-12.51,147.58-1.28,11-11,21.77-18.59,31.24-20.94,26.14-13.91,55.56,16.83,67-15,8.92-15,8.92-69.65-54.66-.91,19.52-.75,35.3-2.61,50.83a146.55,146.55,0,0,1-12.87,45.53c3.88-42.94-14.13-72.79-44.67-96.34Z"/><path d="M500,600.7c-2-2.82-4.12-5.53-5.9-8.47a55.59,55.59,0,0,1-8-28.08c-.5-23-1.06-46-1.44-69.07-.52-30.9,21.64-55.58,52.15-58.25,1-.09,2-.11,2.82-.16.17,9.86.35,19.61.52,29.52a27.18,27.18,0,0,0-19.71,10.29A24.86,24.86,0,0,0,514.27,493c.41,23.79.84,47.59,1.53,71.38A26.4,26.4,0,0,0,534,588.73a27,27,0,0,0,29.35-8,25.12,25.12,0,0,0,6.39-16.91q-.18-18.37-.74-36.73c-.07-2.37.51-3.57,2.77-4.71,10-5.08,18.72-11.81,25.15-21.19a14.43,14.43,0,0,1,1-1.15c.1.85.21,1.4.22,2,.43,19.86,1,39.73,1.21,59.6.2,22.25-9.22,39.64-28.54,50.65s-39,10.15-58.16-1.13c-1.91-1.12-3.7-2.44-5.54-3.67Z"/><path d="M501.54,346c3.84-2.52,7.5-5.41,11.56-7.52,36.15-18.8,80.19,5.84,82.31,46.49,1.29,24.83,1.65,49.74,1.6,74.62,0,28.55-24.48,53.69-53,55.55-.68,0-1.37.14-1.95.2l-.45-29.65a27,27,0,0,0,19.71-10.3,25,25,0,0,0,6.17-16.53c-.41-23.8-.85-47.6-1.53-71.39a26.38,26.38,0,0,0-18-24.26A27,27,0,0,0,518.61,371a25.44,25.44,0,0,0-6.54,17.32c.15,12.48.46,25,.74,37.43,0,1.24-.08,2.09-1.44,2.72-10.88,5-20.14,12.1-27,22.08-.08.11-.24.16-.56.36-.05-.85-.12-1.59-.14-2.33-.4-18.87-.71-37.74-1.22-56.61-.39-14,3.13-26.64,11.72-37.78a7.39,7.39,0,0,0,.65-1.21Z"/></svg>