<svg xmlns="http://www.w3.org/2000/svg" viewBox="0 0 707.56 987.5"><defs><style>.cls-1,.cls-3{fill:#fff;}.cls-1,.cls-2{stroke:#000;stroke-miterlimit:10;stroke-width:13.85px;}</style></defs><g id="Layer_2" data-name="Layer 2"><g id="Layer_1-2" data-name="Layer 1"><path class="cls-1" d="M202.58,6.92H505A195.65,195.65,0,0,1,700.64,202.58V862.84A117.74,117.74,0,0,1,582.9,980.58H124.66A117.74,117.74,0,0,1,6.92,862.84V202.58A195.65,195.65,0,0,1,202.58,6.92Z"/><path class="cls-2" d="M6.92,741.78H700.64a0,0,0,0,1,0,0V862.84A117.74,117.74,0,0,1,582.9,980.58H124.66A117.74,117.74,0,0,1,6.92,862.84V741.78A0,0,0,0,1,6.92,741.78Z"/><path d="M526.72,515.57c-30.9,48.31-113.87,30.49-129.49-21.73-3.62,10.1-3.1,11.77,11,34.91-11.28-.37-35.82-16.12-51.39-37-13.2-17.7-25.67-36.69-34.18-56.92-8.32-19.77-11.21-41.82-16.52-63-16.56,20.64-37.24,37.9-64,45.71-12.89,3.76-26.6,4.76-38.94,6.84,5.69-18.06,11.49-34.32,15.9-50.95,5.63-21.26,12-42,27.29-60.46-10-.87-18.55-.8-26.71-2.45-37.53-7.59-65-38.76-71.64-79.7-3.52-21.85-2.06-43.06,6-63.71a92,92,0,0,1,120.42-52c3.17,1.28,6.34,2.64,9.38,4.2C299,127.18,313.93,136,332.68,130c-5.18,14.89-14.77,19.47-30.55,15.91-12.67-2.86-25.27-6.72-38.11-8-23-2.23-43.31,4.32-56,24.93-13,21.12-13.28,43.53-2.31,65.76a40.75,40.75,0,0,0,8.89,11.2c9.33,8.72,18,9,27-.43,8.72-9.15,15.71-19.94,24.21-29.31,10.1-11.13,19.88-23,31.78-31.93,28-21,59-19.09,86,2.85a22.09,22.09,0,0,0,11.74,4.85c37,2.26,63.36,20.29,79.58,53.18,20.22,41,42,81,69.69,117.46,3.52,4.63,7.7,8.75,11.38,13.27,8,9.85,7,20.77-2.57,29.11a11.21,11.21,0,0,1-2.45,1.87c-16.16,7.76-23.39,18.1-15,36.89,4,9-2.13,17.75-10.52,23.59-7,4.88-14.16,9.7-20.64,15.26-7.7,6.62-12.52,14.92-8.45,25.5,4.22,11,13.45,13.77,24.17,13.54C522.17,515.54,523.8,515.57,526.72,515.57Z"/><path d="M272.07,429c4,1.28,8.16,2.3,12.06,3.9a44.74,44.74,0,0,1,17,12.7q19.9,23.24,39.75,46.52c.12.15.22.33.46.68a3.71,3.71,0,0,1-1,.05c-9.41-2.08-18.78-1.55-28.11.45a3.06,3.06,0,0,1-3.44-1.22q-12.81-15.17-25.76-30.22c-9.67-11.21-25.49-12.07-35.9-2a24.23,24.23,0,0,0-2.47,31.78c2.42,3.16,5.09,6.13,7.68,9.16q16.56,19.41,33.16,38.81c8.9,10.33,23.64,11.87,34,3.67a3.9,3.9,0,0,0,.63-.51c1.59-2,3.38-3.16,6.16-2.92,3.62.31,7.16.54,9.95,3.24.43.42.88.84,1.28,1.29l6.55,7.56a41.9,41.9,0,0,1-12.33,12.47,48.92,48.92,0,0,1-56.7-1.47,53.55,53.55,0,0,1-8.44-8.12c-13-15-25.81-30.17-38.73-45.25a48.77,48.77,0,0,1-12.26-30.77,9.5,9.5,0,0,0-.24-1.38l.64-8.08c.19-.64.4-1.28.56-1.93,4.55-19.11,16.21-31.58,35.07-37.07,4-1.15,8.19-1.32,12.29-1.94Z"/><path d="M291,583.24c2.43.38,4.4.71,6.37,1,7.66,1.07,15.22.27,22.72-1.31a3.33,3.33,0,0,1,3.74,1.37q11.3,13.41,22.74,26.68c9.72,11.26,25.65,12.06,36,1.88a24.37,24.37,0,0,0,2.46-31.5c-.52-.7-1.07-1.39-1.64-2.06Q365.28,558,347.11,536.78c-8.91-10.37-23.56-12-34-3.94-.27.2-.52.43-.8.62-1.37.95-1.89,2.95-4.11,2.88-4.26-.15-8.73.24-11.93-3.23-2.65-2.87-4.89-6.11-7.49-9.42a39.1,39.1,0,0,1,12.14-12c17-10.46,34.28-11.05,51.83-1.56a44.84,44.84,0,0,1,12.65,10.63c12.19,14.27,24.43,28.51,36.56,42.83,13.95,16.49,15.93,37.84,5.39,56.59-10.13,18-32.68,27.72-52.78,22.84a49.1,49.1,0,0,1-26.32-16q-18.12-21.15-36.19-42.36C291.82,584.31,291.56,584,291,583.24Z"/><path class="cls-3" d="M205.2,813.57a9.79,9.79,0,0,1,8.45-4.09,12.21,12.21,0,0,1,9.33,4.16,16.64,16.64,0,0,1,0,21.22,12.12,12.12,0,0,1-9.25,4.13,9.78,9.78,0,0,1-8.53-4.54v17.93h-8.84V809.79h8.84Zm10.7,15.94a6.94,6.94,0,0,0,1.91-5.25A7,7,0,0,0,215.9,819a6.13,6.13,0,0,0-4.39-1.86,6.2,6.2,0,0,0-4.4,1.84,6.93,6.93,0,0,0-1.91,5.24,7,7,0,0,0,1.91,5.27,6.13,6.13,0,0,0,8.79,0Z"/><path class="cls-3" d="M234.74,834.91a14,14,0,0,1-4.37-10.75,13.84,13.84,0,0,1,4.34-10.67,16.37,16.37,0,0,1,21.47,0,13.86,13.86,0,0,1,4.32,10.67,14.14,14.14,0,0,1-4.29,10.75,14.92,14.92,0,0,1-10.7,4.08A15.18,15.18,0,0,1,234.74,834.91Zm15-5.32a7.55,7.55,0,0,0,1.76-5.38,7.35,7.35,0,0,0-1.81-5.35,5.84,5.84,0,0,0-4.29-1.83,5.75,5.75,0,0,0-4.27,1.83,7.43,7.43,0,0,0-1.78,5.35,7.31,7.31,0,0,0,1.84,5.38,5.86,5.86,0,0,0,4.31,1.86A5.63,5.63,0,0,0,249.75,829.59Z"/><path class="cls-3" d="M298.59,809.79h8.32l-8.63,28.84h-9.51l-4-17-4.09,17h-9.51l-8.63-28.84h8.84l4.5,20.26,4.44-20.26h9.36l4.44,20.26Z"/><path class="cls-3" d="M323.19,839a14,14,0,0,1-10.34-4q-4-4.07-4-10.78t4-10.7a14.1,14.1,0,0,1,10.37-4,14.8,14.8,0,0,1,10.54,3.93q4.18,3.93,4.18,10.91a17.43,17.43,0,0,1-.2,2.79H317.86a4.72,4.72,0,0,0,1.71,3.12,4.78,4.78,0,0,0,3.13,1.22,6.88,6.88,0,0,0,2.5-.34,4.3,4.3,0,0,0,1.22-.67,8.85,8.85,0,0,0,1-1.11H337a12.7,12.7,0,0,1-5,7A14.73,14.73,0,0,1,323.19,839ZM327,818.3a5.59,5.59,0,0,0-3.67-1.27,5.22,5.22,0,0,0-3.57,1.27,5.55,5.55,0,0,0-1.81,3.28h10.81A4.7,4.7,0,0,0,327,818.3Z"/><path class="cls-3" d="M352.44,809.79v5.38q3.09-5.68,8.27-5.69v9h-2.18a6.44,6.44,0,0,0-4.57,1.44c-1,1-1.52,2.66-1.52,5.07v13.64H343.6V809.79Z"/><path class="cls-3" d="M377.76,839a14,14,0,0,1-10.34-4q-4-4.07-4-10.78t4-10.7a14.07,14.07,0,0,1,10.36-4,14.79,14.79,0,0,1,10.54,3.93q4.18,3.93,4.19,10.91a17.39,17.39,0,0,1-.21,2.79H372.44a5,5,0,0,0,4.83,4.34,7,7,0,0,0,2.51-.34,4.22,4.22,0,0,0,1.21-.67,8.76,8.76,0,0,0,1-1.11h9.56a12.68,12.68,0,0,1-5,7A14.76,14.76,0,0,1,377.76,839Zm3.77-20.69a5.57,5.57,0,0,0-3.67-1.27,5.18,5.18,0,0,0-3.56,1.27,5.45,5.45,0,0,0-1.81,3.28h10.8A4.66,4.66,0,0,0,381.53,818.3Z"/><path class="cls-3" d="M399.88,834.86a16.61,16.61,0,0,1,0-21.22,12.21,12.21,0,0,1,9.33-4.16,9.8,9.8,0,0,1,8.45,4.09V800.39h8.83v38.24h-8.83v-4.18a10,10,0,0,1-8.58,4.54A12.07,12.07,0,0,1,399.88,834.86Zm15.86-5.38a7,7,0,0,0,1.92-5.27,6.9,6.9,0,0,0-1.92-5.24,6.13,6.13,0,0,0-8.78,0,7,7,0,0,0-1.91,5.27,6.91,6.91,0,0,0,1.91,5.25,6.12,6.12,0,0,0,8.78,0Z"/><path class="cls-3" d="M458.59,813.57a9.79,9.79,0,0,1,8.45-4.09,12.2,12.2,0,0,1,9.32,4.16,16.61,16.61,0,0,1,0,21.22,12.12,12.12,0,0,1-9.25,4.13,9.77,9.77,0,0,1-8.52-4.54v4.18h-8.84V800.39h8.84Zm10.69,15.94a6.91,6.91,0,0,0,1.92-5.25,7,7,0,0,0-1.92-5.27,6.13,6.13,0,0,0-8.78,0,6.9,6.9,0,0,0-1.91,5.24,7,7,0,0,0,1.91,5.27,6.12,6.12,0,0,0,8.78,0Z"/><path class="cls-3" d="M493.37,838.06l-11.22-28.27h10l6.41,18.87,7-18.87h9.26l-18.4,42.59h-9.25Z"/><path class="cls-3" d="M183,896.88a16.64,16.64,0,0,1,0-21.22,12.21,12.21,0,0,1,9.33-4.16,9.78,9.78,0,0,1,8.45,4.08v-3.77h8.84v28.84h-8.84v-4.19A10,10,0,0,1,192.2,901,12.11,12.11,0,0,1,183,896.88Zm15.87-5.38a8.2,8.2,0,0,0,0-10.52,6.16,6.16,0,0,0-8.79,0,7,7,0,0,0-1.91,5.27,7,7,0,0,0,1.91,5.25,6.16,6.16,0,0,0,8.79,0Z"/><path class="cls-3" d="M226.21,900.65h-8.84V862.4h8.84v21.45l8.94-12H247l-12.35,14.73L247,900.65H235.3l-9.09-11.53Z"/><path class="cls-3" d="M259.18,868.55a5.17,5.17,0,0,1-8.84-3.69,5.17,5.17,0,1,1,8.84,3.69Zm-8.06,32.1V871.81H260v28.84Z"/><path class="cls-3" d="M280.32,871.81v7.34h-3.67v21.5h-8.84v-21.5h-2.69v-7.34h2.69v-1.09q0-5.47,2.92-8t9.17-2.54v7.5a3.7,3.7,0,0,0-2.5.67,3.09,3.09,0,0,0-.75,2.37v1.09Z"/><path class="cls-3" d="M297.68,871.81v7.34H294v21.5h-8.83v-21.5h-2.69v-7.34h2.69v-1.09q0-5.47,2.92-8t9.17-2.54v7.5a3.73,3.73,0,0,0-2.51.67,3.09,3.09,0,0,0-.75,2.37v1.09Z"/><path class="cls-3" d="M314.68,901A13.92,13.92,0,0,1,304.35,897q-4-4.05-4-10.77t4-10.7a14.09,14.09,0,0,1,10.36-4,14.81,14.81,0,0,1,10.55,3.93q4.18,3.93,4.18,10.9a18.68,18.68,0,0,1-.2,2.79H309.36a5,5,0,0,0,4.83,4.34,7.18,7.18,0,0,0,2.51-.33,4.6,4.6,0,0,0,1.21-.67,9.47,9.47,0,0,0,1-1.11h9.56a12.66,12.66,0,0,1-5,7A14.81,14.81,0,0,1,314.68,901Zm3.78-20.7a5.66,5.66,0,0,0-3.67-1.26,5.25,5.25,0,0,0-3.57,1.26,5.56,5.56,0,0,0-1.81,3.28h10.8A4.69,4.69,0,0,0,318.46,880.31Z"/><path class="cls-3" d="M342.64,900.08l-11.21-28.27h10l6.41,18.86,7-18.86h9.25l-18.4,42.58h-9.25Z"/><path class="cls-3" d="M388.38,871.81v7.29l-11.06,14.26h11.06v7.29H366.93v-7.29L378,879.1H366.93v-7.29Z"/><path class="cls-3" d="M402.9,868.55a5.17,5.17,0,0,1-8.84-3.69,5.17,5.17,0,1,1,8.84,3.69Zm-8.06,32.1V871.81h8.84v28.84Z"/><path class="cls-3" d="M413.73,896.93a14,14,0,0,1-4.37-10.75,13.82,13.82,0,0,1,4.34-10.67,16.39,16.39,0,0,1,21.48,0,13.87,13.87,0,0,1,4.31,10.67,14.16,14.16,0,0,1-4.29,10.75A14.91,14.91,0,0,1,424.5,901,15.18,15.18,0,0,1,413.73,896.93Zm15-5.33a7.54,7.54,0,0,0,1.76-5.37,7.29,7.29,0,0,0-1.81-5.35,5.84,5.84,0,0,0-4.29-1.83,5.73,5.73,0,0,0-4.26,1.83,8.82,8.82,0,0,0,.05,10.72,5.86,5.86,0,0,0,4.31,1.86A5.61,5.61,0,0,0,428.74,891.6Z"/><path class="cls-3" d="M446.88,896.88a16.64,16.64,0,0,1,0-21.22,12.21,12.21,0,0,1,9.33-4.16,9.78,9.78,0,0,1,8.45,4.08v-3.77h8.84v28.68a15.41,15.41,0,0,1-3.31,10.08,10.58,10.58,0,0,1-4.52,3.2,17.94,17.94,0,0,1-6.64,1.14q-6.61,0-10.5-2.69T444.14,904h8.68q1.24,3.25,6.21,3.25a5.43,5.43,0,0,0,4-1.62c1.06-1.09,1.6-2.8,1.6-5.15v-4a10,10,0,0,1-8.58,4.55A12.11,12.11,0,0,1,446.88,896.88Zm15.87-5.38a8.2,8.2,0,0,0,0-10.52,6.16,6.16,0,0,0-8.79,0,7,7,0,0,0-1.91,5.27,7,7,0,0,0,1.91,5.25,6.16,6.16,0,0,0,8.79,0Z"/><path class="cls-3" d="M481.25,900.65V862.4h8.83v38.25Z"/><path class="cls-3" d="M517.42,871.81h8.84v28.84h-8.84v-4.24q-2.73,4.55-8.73,4.55a10.45,10.45,0,0,1-8-3.31q-3.07-3.3-3.07-9V871.81h8.78v15.66a6,6,0,0,0,1.48,4.31,6.14,6.14,0,0,0,8.11,0,5.94,5.94,0,0,0,1.47-4.31Z"/></g></g></svg>