<svg id="Layer_1" data-name="Layer 1" xmlns="http://www.w3.org/2000/svg" viewBox="0 0 1080 1080"><defs><style>.cls-1,.cls-2{fill:#fff;}.cls-2,.cls-3{stroke:#000;stroke-miterlimit:10;stroke-width:10px;}</style></defs><rect class="cls-1" width="1080" height="1080"/><path class="cls-2" d="M430.83,188.5H649.17A141.27,141.27,0,0,1,790.44,329.77V806.49a85,85,0,0,1-85,85H374.57a85,85,0,0,1-85-85V329.77A141.27,141.27,0,0,1,430.83,188.5Z"/><path class="cls-3" d="M289.56,719.08H790.44a0,0,0,0,1,0,0v87.41a85,85,0,0,1-85,85H374.57a85,85,0,0,1-85-85V719.08A0,0,0,0,1,289.56,719.08Z"/><path d="M664.86,555.75c-22.3,34.88-82.21,22-93.49-15.68-2.61,7.29-2.23,8.5,7.92,25.2-8.15-.27-25.87-11.64-37.11-26.71-9.53-12.78-18.54-26.49-24.68-41.09-6-14.28-8.09-30.2-11.93-45.5-12,14.9-26.89,27.36-46.21,33-9.31,2.72-19.2,3.44-28.12,4.94,4.12-13,8.31-24.78,11.49-36.78,4.07-15.35,8.67-30.35,19.7-43.66-7.25-.62-13.39-.57-19.29-1.77-27.09-5.48-47-28-51.72-57.54-2.54-15.78-1.48-31.09,4.31-46a66.4,66.4,0,0,1,86.95-37.52c2.29.93,4.57,1.9,6.77,3,11,5.66,21.78,12,35.32,7.72-3.75,10.76-10.67,14.06-22.06,11.49-9.15-2.06-18.25-4.85-27.52-5.75-16.58-1.62-31.27,3.11-40.46,18-9.42,15.25-9.59,31.42-1.67,47.48a29.51,29.51,0,0,0,6.42,8.08c6.73,6.3,13,6.49,19.5-.31,6.3-6.6,11.34-14.39,17.48-21.16,7.29-8,14.36-16.62,23-23.06,20.22-15.15,42.62-13.78,62.11,2.06a16,16,0,0,0,8.48,3.51c26.7,1.63,45.74,14.64,57.46,38.39,14.59,29.58,30.29,58.47,50.32,84.81,2.54,3.35,5.55,6.32,8.21,9.58,5.79,7.12,5.06,15-1.85,21a8.39,8.39,0,0,1-1.77,1.35c-11.67,5.6-16.89,13.07-10.82,26.63,2.9,6.49-1.54,12.82-7.6,17a178.88,178.88,0,0,0-14.89,11c-5.56,4.78-9,10.77-6.11,18.41,3,7.94,9.71,9.94,17.46,9.77C661.58,555.73,662.76,555.75,664.86,555.75Z"/><path d="M481,493.23c2.91.92,5.89,1.66,8.71,2.81A32.54,32.54,0,0,1,502,505.21Q516.39,522,530.71,538.8c.09.11.16.24.33.49a2.92,2.92,0,0,1-.69,0,47.28,47.28,0,0,0-20.3.32,2.21,2.21,0,0,1-2.48-.88Q498.31,527.82,489,517c-7-8.1-18.4-8.72-25.92-1.47a17.49,17.49,0,0,0-1.78,22.94c1.74,2.29,3.67,4.43,5.54,6.62q12,14,23.95,28a17.64,17.64,0,0,0,24.53,2.65,2.41,2.41,0,0,0,.46-.37,4.83,4.83,0,0,1,4.45-2.11c2.61.22,5.16.39,7.17,2.34.32.31.64.61.93.94,1.57,1.79,3.13,3.6,4.73,5.45a30.23,30.23,0,0,1-8.9,9,35.32,35.32,0,0,1-40.94-1.07,37.92,37.92,0,0,1-6.09-5.86c-9.37-10.84-18.64-21.78-28-32.67a35.18,35.18,0,0,1-8.86-22.22,6.83,6.83,0,0,0-.17-1l.46-5.84c.13-.46.29-.92.4-1.39,3.29-13.8,11.71-22.8,25.32-26.77,2.86-.83,5.92-.95,8.88-1.4Z"/><path d="M494.67,604.61c1.76.28,3.17.52,4.6.72a47.36,47.36,0,0,0,16.4-1,2.42,2.42,0,0,1,2.71,1q8.14,9.68,16.41,19.26c7,8.14,18.52,8.71,26,1.36a17.59,17.59,0,0,0,1.77-22.74c-.38-.51-.77-1-1.18-1.49q-13.11-15.35-26.23-30.69c-6.43-7.49-17-8.69-24.52-2.85-.19.15-.37.32-.57.45-1,.69-1.37,2.13-3,2.08-3.08-.11-6.3.17-8.62-2.33-1.91-2.07-3.53-4.41-5.4-6.8a28,28,0,0,1,8.76-8.64c12.24-7.56,24.75-8,37.43-1.13a32.15,32.15,0,0,1,9.12,7.67c8.81,10.3,17.65,20.58,26.4,30.93,10.08,11.9,11.51,27.32,3.9,40.86-7.32,13-23.6,20-38.11,16.49a35.45,35.45,0,0,1-19-11.59q-13.1-15.27-26.13-30.58C495.26,605.39,495.07,605.13,494.67,604.61Z"/><path class="cls-1" d="M432.72,770.92a7.06,7.06,0,0,1,6.1-2.95,8.82,8.82,0,0,1,6.74,3,12,12,0,0,1,0,15.32,8.77,8.77,0,0,1-6.68,3,7.06,7.06,0,0,1-6.16-3.28v13h-6.38V768.19h6.38Zm7.73,11.51a5,5,0,0,0,1.38-3.79,5.09,5.09,0,0,0-1.38-3.81,4.44,4.44,0,0,0-6.35,0,5,5,0,0,0-1.38,3.78,5.09,5.09,0,0,0,1.38,3.81,4.45,4.45,0,0,0,6.35,0Z"/><path class="cls-1" d="M454.05,786.33a10.12,10.12,0,0,1-3.16-7.76,10,10,0,0,1,3.14-7.71,11.84,11.84,0,0,1,15.5,0,10,10,0,0,1,3.12,7.71,10.26,10.26,0,0,1-3.1,7.76,10.77,10.77,0,0,1-7.72,2.94A11,11,0,0,1,454.05,786.33Zm10.84-3.85a5.46,5.46,0,0,0,1.26-3.88,5.27,5.27,0,0,0-1.3-3.86,4.21,4.21,0,0,0-3.1-1.32,4.16,4.16,0,0,0-3.08,1.32,6.41,6.41,0,0,0,0,7.74,4.22,4.22,0,0,0,3.12,1.35A4.06,4.06,0,0,0,464.89,782.48Z"/><path class="cls-1" d="M500.15,768.19h6L499.92,789h-6.86l-2.91-12.31L487.2,789h-6.87l-6.23-20.82h6.38l3.25,14.63,3.21-14.63h6.75l3.21,14.63Z"/><path class="cls-1" d="M517.91,789.27a10.06,10.06,0,0,1-7.46-2.92,10.57,10.57,0,0,1-2.91-7.78,10.4,10.4,0,0,1,2.89-7.73,10.18,10.18,0,0,1,7.48-2.87,10.67,10.67,0,0,1,7.61,2.83,10.26,10.26,0,0,1,3,7.88,12.64,12.64,0,0,1-.15,2H514.07A3.41,3.41,0,0,0,515.3,783a3.46,3.46,0,0,0,2.26.88,4.91,4.91,0,0,0,1.81-.25,3.2,3.2,0,0,0,.87-.48,6.33,6.33,0,0,0,.73-.8h6.9a9.1,9.1,0,0,1-3.58,5.05A10.69,10.69,0,0,1,517.91,789.27Zm2.72-14.94a4,4,0,0,0-2.65-.91,3.76,3.76,0,0,0-2.57.91,4,4,0,0,0-1.31,2.37h7.8A3.38,3.38,0,0,0,520.63,774.33Z"/><path class="cls-1" d="M539,768.19v3.88q2.24-4.1,6-4.1v6.49h-1.57a4.6,4.6,0,0,0-3.3,1,4.91,4.91,0,0,0-1.1,3.65V789h-6.38V768.19Z"/><path class="cls-1" d="M557.31,789.27a10.07,10.07,0,0,1-7.46-2.92,10.57,10.57,0,0,1-2.91-7.78,10.4,10.4,0,0,1,2.89-7.73,10.18,10.18,0,0,1,7.48-2.87,10.71,10.71,0,0,1,7.62,2.83,10.3,10.3,0,0,1,3,7.88,12.64,12.64,0,0,1-.15,2H553.47A3.41,3.41,0,0,0,554.7,783a3.48,3.48,0,0,0,2.26.88,4.88,4.88,0,0,0,1.81-.25,3.29,3.29,0,0,0,.88-.48,7.33,7.33,0,0,0,.72-.8h6.91a9.16,9.16,0,0,1-3.59,5.05A10.66,10.66,0,0,1,557.31,789.27ZM560,774.33a4.06,4.06,0,0,0-2.65-.91,3.79,3.79,0,0,0-2.58.91,4,4,0,0,0-1.3,2.37h7.8A3.42,3.42,0,0,0,560,774.33Z"/><path class="cls-1" d="M573.28,786.29a12,12,0,0,1,0-15.32,8.82,8.82,0,0,1,6.74-3,7.06,7.06,0,0,1,6.1,2.95V761.4h6.38V789h-6.38v-3a7.21,7.21,0,0,1-6.19,3.28A8.74,8.74,0,0,1,573.28,786.29Zm11.46-3.88a5.09,5.09,0,0,0,1.38-3.81,5,5,0,0,0-1.38-3.78,4.44,4.44,0,0,0-6.35,0,5.08,5.08,0,0,0-1.37,3.81,5,5,0,0,0,1.37,3.79,4.45,4.45,0,0,0,6.35,0Z"/><path class="cls-1" d="M615.67,770.92a7.06,7.06,0,0,1,6.1-2.95,8.82,8.82,0,0,1,6.74,3,12,12,0,0,1,0,15.32,8.77,8.77,0,0,1-6.68,3,7.06,7.06,0,0,1-6.16-3.28v3h-6.38V761.4h6.38Zm7.73,11.51a5,5,0,0,0,1.38-3.79,5.09,5.09,0,0,0-1.38-3.81,4.44,4.44,0,0,0-6.35,0,5,5,0,0,0-1.38,3.78,5.09,5.09,0,0,0,1.38,3.81,4.45,4.45,0,0,0,6.35,0Z"/><path class="cls-1" d="M640.78,788.6l-8.09-20.41h7.24l4.62,13.62,5.08-13.62h6.68L643,798.94h-6.68Z"/><path class="cls-1" d="M416.7,831.07a12,12,0,0,1,0-15.32,8.8,8.8,0,0,1,6.73-3,7.07,7.07,0,0,1,6.1,2.94V813h6.38v20.82h-6.38v-3a7.21,7.21,0,0,1-6.19,3.28A8.71,8.71,0,0,1,416.7,831.07Zm11.45-3.88a5.09,5.09,0,0,0,1.38-3.81,5,5,0,0,0-1.38-3.79,4.44,4.44,0,0,0-6.34,0,5.07,5.07,0,0,0-1.38,3.81,5,5,0,0,0,1.38,3.78,4.43,4.43,0,0,0,6.34,0Z"/><path class="cls-1" d="M447.89,833.79h-6.38V806.18h6.38v15.48l6.46-8.69h8.58L454,823.6l8.92,10.19h-8.47l-6.57-8.32Z"/><path class="cls-1" d="M471.7,810.62a3.84,3.84,0,1,1,1.08-2.67A3.63,3.63,0,0,1,471.7,810.62Zm-5.82,23.17V813h6.38v20.82Z"/><path class="cls-1" d="M487,813v5.3h-2.65v15.52h-6.38V818.27H476V813h1.94v-.78q0-4,2.11-5.79t6.62-1.83V810a2.7,2.7,0,0,0-1.81.49,2.23,2.23,0,0,0-.54,1.72V813Z"/><path class="cls-1" d="M499.5,813v5.3h-2.65v15.52h-6.38V818.27h-2V813h2v-.78q0-4,2.1-5.79t6.63-1.83V810a2.7,2.7,0,0,0-1.81.49,2.23,2.23,0,0,0-.54,1.72V813Z"/><path class="cls-1" d="M511.77,834.05a10,10,0,0,1-7.46-2.93,10.54,10.54,0,0,1-2.91-7.78,10.38,10.38,0,0,1,2.89-7.72,10.14,10.14,0,0,1,7.48-2.87,10.67,10.67,0,0,1,7.61,2.83,10.26,10.26,0,0,1,3,7.87,12.68,12.68,0,0,1-.15,2H507.93a3.43,3.43,0,0,0,1.23,2.26,3.47,3.47,0,0,0,2.26.87,5.18,5.18,0,0,0,1.81-.24,3.2,3.2,0,0,0,.87-.48,6.58,6.58,0,0,0,.73-.81h6.9a9.12,9.12,0,0,1-3.58,5.06A10.69,10.69,0,0,1,511.77,834.05Zm2.73-14.94a4.07,4.07,0,0,0-2.65-.92,3.79,3.79,0,0,0-2.58.92,3.94,3.94,0,0,0-1.3,2.37h7.79A3.41,3.41,0,0,0,514.5,819.11Z"/><path class="cls-1" d="M532,833.38,523.86,813h7.24l4.63,13.62L540.8,813h6.68L534.2,843.72h-6.68Z"/><path class="cls-1" d="M565,813v5.26l-8,10.3h8v5.26H549.5v-5.26l8-10.3h-8V813Z"/><path class="cls-1" d="M575.47,810.62a3.84,3.84,0,1,1,1.08-2.67A3.63,3.63,0,0,1,575.47,810.62Zm-5.82,23.17V813H576v20.82Z"/><path class="cls-1" d="M583.28,831.1a10.12,10.12,0,0,1-3.15-7.76,10,10,0,0,1,3.14-7.7,11.84,11.84,0,0,1,15.5,0,10,10,0,0,1,3.12,7.7,10.23,10.23,0,0,1-3.1,7.76,10.76,10.76,0,0,1-7.73,2.95A11,11,0,0,1,583.28,831.1Zm10.84-3.84a5.43,5.43,0,0,0,1.27-3.88,5.27,5.27,0,0,0-1.3-3.86,4.23,4.23,0,0,0-3.1-1.33,4.17,4.17,0,0,0-3.08,1.33,6.37,6.37,0,0,0,0,7.74,4.2,4.2,0,0,0,3.11,1.34A4,4,0,0,0,594.12,827.26Z"/><path class="cls-1" d="M607.22,831.07a12,12,0,0,1,0-15.32,8.82,8.82,0,0,1,6.74-3,7.08,7.08,0,0,1,6.1,2.94V813h6.38v20.71a11.09,11.09,0,0,1-2.39,7.27,7.68,7.68,0,0,1-3.27,2.32,12.85,12.85,0,0,1-4.79.82,13.15,13.15,0,0,1-7.58-1.94,7.67,7.67,0,0,1-3.17-5.93h6.27c.6,1.56,2.09,2.35,4.48,2.35a3.89,3.89,0,0,0,2.91-1.18,5.12,5.12,0,0,0,1.16-3.71v-2.91a7.22,7.22,0,0,1-6.2,3.28A8.71,8.71,0,0,1,607.22,831.07Zm11.46-3.88a5.09,5.09,0,0,0,1.38-3.81,5,5,0,0,0-1.38-3.79,4.45,4.45,0,0,0-6.35,0,5.07,5.07,0,0,0-1.38,3.81,5,5,0,0,0,1.38,3.78,4.44,4.44,0,0,0,6.35,0Z"/><path class="cls-1" d="M632,833.79V806.18h6.39v27.61Z"/><path class="cls-1" d="M658.15,813h6.38v20.82h-6.38v-3.06a6.8,6.8,0,0,1-6.3,3.28,7.53,7.53,0,0,1-5.8-2.38,9.14,9.14,0,0,1-2.22-6.5V813h6.34v11.31a4.28,4.28,0,0,0,1.06,3.11,4.45,4.45,0,0,0,5.86,0,4.28,4.28,0,0,0,1.06-3.11Z"/></svg>