<svg id="Layer_1" data-name="Layer 1" xmlns="http://www.w3.org/2000/svg" viewBox="0 0 1080 1080"><defs><style>.cls-1{fill:#fff;}</style></defs><rect class="cls-1" width="1080" height="1080"/><path d="M769,724.34c-40.9,64-150.75,40.37-171.42-28.76-4.8,13.37-4.11,15.59,14.51,46.22-14.95-.5-47.43-21.35-68-49-17.48-23.43-34-48.58-45.26-75.35-11-26.17-14.84-55.37-21.87-83.42-21.92,27.32-49.3,50.17-84.72,60.51-17.08,5-35.22,6.3-51.56,9.06,7.54-23.91,15.22-45.44,21.05-67.46,7.46-28.14,15.9-55.63,36.13-80-13.3-1.16-24.56-1.07-35.37-3.25-49.68-10.06-86.11-51.32-94.84-105.52-4.65-28.92-2.72-57,7.9-84.34a121.76,121.76,0,0,1,159.43-68.8c4.2,1.71,8.39,3.49,12.42,5.57,20.14,10.37,39.94,22,64.76,14.15-6.87,19.72-19.56,25.77-40.45,21.06-16.78-3.78-33.46-8.89-50.46-10.54-30.39-3-57.33,5.71-74.18,33-17.27,28-17.59,57.62-3.06,87.06,2.74,5.54,7.18,10.55,11.76,14.83,12.35,11.54,23.88,11.9,35.77-.57C403,346.66,412.23,332.38,423.5,320c13.36-14.74,26.32-30.47,42.07-42.27,37.09-27.79,78.15-25.27,113.9,3.77A29.26,29.26,0,0,0,595,287.9c49,3,83.87,26.85,105.36,70.39,26.76,54.24,55.54,107.22,92.26,155.52,4.66,6.13,10.19,11.58,15.06,17.56,10.62,13,9.28,27.5-3.4,38.55a15.62,15.62,0,0,1-3.24,2.47c-21.4,10.27-31,24-19.84,48.83,5.31,11.89-2.82,23.5-13.93,31.23C758,658.92,748.53,665.3,740,672.66c-10.2,8.77-16.58,19.75-11.2,33.76,5.6,14.55,17.81,18.23,32,17.93C762.94,724.3,765.1,724.34,769,724.34Z"/><path d="M431.83,609.7c5.32,1.69,10.79,3,15.95,5.16a59.15,59.15,0,0,1,22.57,16.82q26.36,30.75,52.62,61.58c.17.2.29.43.61.9a4.89,4.89,0,0,1-1.27.07c-12.45-2.75-24.86-2.06-37.22.59a4,4,0,0,1-4.55-1.62q-17-20.07-34.11-40c-12.8-14.84-33.74-16-47.52-2.68a32.06,32.06,0,0,0-3.27,42.07c3.2,4.18,6.74,8.11,10.16,12.12q21.94,25.71,43.91,51.38c11.77,13.68,31.3,15.72,45,4.86a5,5,0,0,0,.83-.67c2.11-2.59,4.47-4.18,8.16-3.87,4.79.41,9.47.72,13.16,4.29.58.56,1.17,1.11,1.7,1.71,2.88,3.3,5.74,6.62,8.67,10a55.3,55.3,0,0,1-16.32,16.52c-23.32,15.35-52.57,14.67-75.06-2a70.46,70.46,0,0,1-11.18-10.73c-17.18-19.9-34.17-40-51.27-59.92-10.06-11.74-15.69-25.21-16.23-40.73a13,13,0,0,0-.32-1.83l.84-10.7c.25-.85.54-1.69.74-2.55,6-25.3,21.46-41.81,46.43-49.08,5.23-1.53,10.84-1.75,16.28-2.57Z"/><path d="M456.88,813.93c3.22.5,5.82,1,8.43,1.31,10.14,1.42,20.16.36,30.08-1.73,2.26-.48,3.52.11,5,1.82q14.94,17.74,30.1,35.31c12.88,14.92,34,16,47.72,2.49a32.25,32.25,0,0,0,3.25-41.7q-1-1.39-2.16-2.73-24-28.14-48.09-56.27c-11.79-13.74-31.19-15.94-45-5.22-.36.27-.69.57-1.06.83-1.81,1.25-2.51,3.9-5.45,3.8-5.63-.19-11.54.32-15.79-4.28-3.5-3.79-6.47-8.08-9.91-12.46a51.66,51.66,0,0,1,16.07-15.85c22.44-13.85,45.38-14.63,68.62-2.07a59.54,59.54,0,0,1,16.74,14.07q24.23,28.34,48.4,56.72c18.47,21.82,21.1,50.09,7.14,74.91-13.41,23.85-43.26,36.69-69.87,30.23a64.81,64.81,0,0,1-34.84-21.25q-24-28-47.92-56.07C458,815.35,457.62,814.88,456.88,813.93Z"/></svg>