<svg id="Layer_1" data-name="Layer 1" xmlns="http://www.w3.org/2000/svg" viewBox="0 0 1080 1080"><defs><style>.cls-1{fill:#fff;}</style></defs><rect width="1080" height="1080"/><path class="cls-1" d="M748.64,708c-37.27,58.28-137.38,36.79-156.22-26.21-4.37,12.18-3.74,14.2,13.23,42.11-13.62-.45-43.22-19.45-62-44.62-15.93-21.36-31-44.27-41.25-68.67-10-23.85-13.52-50.46-19.93-76-20,24.9-44.93,45.73-77.21,55.15-15.55,4.54-32.09,5.74-47,8.25,6.87-21.78,13.87-41.4,19.18-61.46,6.8-25.65,14.5-50.71,32.93-72.94-12.12-1.05-22.39-1-32.23-3-45.28-9.16-78.48-46.77-86.43-96.16-4.24-26.36-2.48-51.95,7.2-76.86A111,111,0,0,1,444.22,224.9c3.82,1.55,7.64,3.18,11.31,5.07,18.36,9.45,36.4,20.06,59,12.9-6.26,18-17.82,23.48-36.86,19.19-15.29-3.45-30.49-8.1-46-9.61-27.7-2.7-52.25,5.2-67.61,30.07-15.73,25.48-16,52.52-2.79,79.34,2.5,5.05,6.55,9.62,10.72,13.52,11.26,10.51,21.76,10.84,32.59-.53,10.53-11,18.95-24.05,29.21-35.36,12.18-13.43,24-27.77,38.35-38.52,33.79-25.32,71.21-23,103.78,3.44a26.79,26.79,0,0,0,14.17,5.85c44.61,2.73,76.43,24.48,96,64.15,24.39,49.43,50.62,97.71,84.07,141.72,4.25,5.59,9.29,10.56,13.73,16,9.68,11.89,8.46,25.05-3.1,35.12a14.12,14.12,0,0,1-3,2.26c-19.5,9.35-28.22,21.83-18.08,44.5,4.84,10.83-2.57,21.41-12.69,28.46-8.47,5.89-17.09,11.7-24.89,18.41-9.3,8-15.11,18-10.2,30.77,5.09,13.26,16.22,16.61,29.16,16.33C743.16,708,745.13,708,748.64,708Z"/><path class="cls-1" d="M441.42,603.51c4.86,1.55,9.84,2.78,14.54,4.7a54.2,54.2,0,0,1,20.57,15.33q24,28,48,56.12c.15.18.27.4.55.83a4.81,4.81,0,0,1-1.15.06c-11.35-2.51-22.66-1.88-33.92.54a3.69,3.69,0,0,1-4.14-1.48q-15.46-18.29-31.09-36.45c-11.66-13.53-30.74-14.56-43.3-2.45a29.21,29.21,0,0,0-3,38.34c2.91,3.81,6.14,7.39,9.26,11.05q20,23.43,40,46.82c10.73,12.46,28.52,14.33,41,4.43a5,5,0,0,0,.75-.61c1.92-2.36,4.08-3.81,7.44-3.53,4.37.37,8.63.65,12,3.91.53.51,1.07,1,1.55,1.56,2.63,3,5.23,6,7.91,9.11a50.64,50.64,0,0,1-14.88,15.06,59,59,0,0,1-68.4-1.79,64.1,64.1,0,0,1-10.19-9.78c-15.66-18.13-31.14-36.41-46.72-54.6-9.16-10.7-14.3-23-14.79-37.12a12.16,12.16,0,0,0-.29-1.67l.76-9.74c.23-.78.49-1.54.68-2.33,5.5-23.05,19.56-38.11,42.31-44.73,4.77-1.39,9.88-1.59,14.84-2.34Z"/><path class="cls-1" d="M464.25,789.63c2.94.46,5.31.86,7.69,1.19,9.24,1.3,18.36.33,27.41-1.58a4,4,0,0,1,4.52,1.66q13.62,16.17,27.43,32.18c11.73,13.6,30.94,14.56,43.48,2.27a29.39,29.39,0,0,0,3-38c-.63-.85-1.29-1.68-2-2.48q-21.9-25.65-43.82-51.29c-10.74-12.51-28.42-14.52-41-4.76-.32.25-.63.53-1,.76-1.65,1.14-2.29,3.56-5,3.47-5.13-.18-10.52.29-14.39-3.9-3.19-3.46-5.89-7.37-9-11.36a47,47,0,0,1,14.64-14.44c20.45-12.62,41.36-13.34,62.54-1.89a54.28,54.28,0,0,1,15.25,12.82c14.72,17.22,29.48,34.4,44.11,51.69,16.83,19.88,19.23,45.64,6.5,68.26C592.45,856,565.25,867.67,541,861.79a59.06,59.06,0,0,1-31.75-19.37q-21.87-25.51-43.66-51.09C465.24,790.92,464.93,790.49,464.25,789.63Z"/></svg>