<svg xmlns="http://www.w3.org/2000/svg" viewBox="0 0 827.75 1068.58"><defs><style>.cls-1{fill:#fff;}</style></defs><g id="Layer_2" data-name="Layer 2"><g id="Layer_1-2" data-name="Layer 1"><path class="cls-1" d="M758.67,811.9c-61.59,96.32-227,60.8-258.16-43.31-7.23,20.13-6.18,23.47,21.85,69.6-22.5-.74-71.42-32.14-102.46-73.75-26.32-35.29-51.2-73.16-68.16-113.49-16.58-39.41-22.35-83.38-32.93-125.63-33,41.15-74.26,75.56-127.6,91.14-25.71,7.51-53,9.48-77.65,13.63,11.36-36,22.92-68.42,31.71-101.58,11.23-42.38,23.95-83.79,54.41-120.54-20-1.73-37-1.6-53.26-4.89C71.59,387.94,16.73,325.8,3.59,244.18c-7-43.57-4.1-85.86,11.9-127A183.35,183.35,0,0,1,255.58,13.55c6.33,2.57,12.64,5.26,18.7,8.38,30.34,15.62,60.15,33.15,97.53,21.32C361.47,72.94,342.36,82.06,310.89,75c-25.26-5.69-50.38-13.38-76-15.88-45.77-4.46-86.35,8.6-111.73,49.7-26,42.11-26.49,86.78-4.6,131.11,4.12,8.36,10.82,15.9,17.71,22.34,18.61,17.38,36,17.92,53.86-.86,17.39-18.25,31.31-39.75,48.27-58.45,20.13-22.19,39.64-45.88,63.37-63.66C357.64,97.42,419.48,101.2,473.31,145c6.33,5.15,15.37,9.18,23.41,9.67,73.72,4.51,126.32,40.45,158.67,106,40.3,81.67,83.65,161.47,138.94,234.2,7,9.23,15.35,17.45,22.68,26.46,16,19.64,14,41.4-5.11,58a23.48,23.48,0,0,1-4.89,3.73c-32.22,15.46-46.63,36.08-29.88,73.54,8,17.9-4.24,35.39-21,47-14,9.75-28.23,19.34-41.13,30.43-15.36,13.21-25,29.75-16.86,50.85,8.42,21.91,26.81,27.45,48.2,27C749.62,811.84,752.87,811.9,758.67,811.9Z"/><path class="cls-1" d="M251,639.25c8,2.55,16.26,4.59,24,7.77,13.41,5.49,24.58,14.35,34,25.33q39.67,46.32,79.24,92.74c.25.3.44.66.91,1.37a8.3,8.3,0,0,1-1.91.1c-18.75-4.15-37.44-3.11-56,.89-3.06.65-4.85-.07-6.86-2.44Q298.79,734.79,273,704.77c-19.29-22.36-50.82-24.07-71.57-4-17.2,16.58-19.45,44.36-4.93,63.35,4.82,6.3,10.15,12.22,15.3,18.26q33,38.71,66.14,77.38C295.63,880.31,325,883.4,345.65,867a7.32,7.32,0,0,0,1.25-1c3.18-3.89,6.74-6.29,12.29-5.82,7.22.61,14.26,1.08,19.82,6.46.87.85,1.77,1.67,2.56,2.58,4.34,5,8.65,10,13.06,15.06a83.44,83.44,0,0,1-24.58,24.88c-35.12,23.11-79.17,22.08-113-2.95a106,106,0,0,1-16.84-16.17c-25.87-30-51.46-60.16-77.21-90.23-15.14-17.68-23.63-38-24.44-61.34a20.21,20.21,0,0,0-.49-2.76l1.27-16.11c.38-1.28.81-2.54,1.12-3.84,9.08-38.1,32.32-63,69.92-73.92,7.88-2.3,16.33-2.63,24.52-3.87Z"/><path class="cls-1" d="M288.7,946.82c4.85.76,8.77,1.43,12.7,2,15.27,2.14,30.35.54,45.29-2.61,3.41-.72,5.31.17,7.47,2.74q22.51,26.72,45.33,53.18c19.4,22.46,51.15,24.06,71.87,3.75,16.78-16.45,18.94-43.93,4.9-62.79-1-1.41-2.13-2.79-3.26-4.12q-36.19-42.39-72.43-84.75c-17.75-20.68-47-24-67.71-7.86-.53.41-1,.87-1.58,1.25-2.74,1.89-3.79,5.88-8.21,5.72-8.49-.29-17.39.49-23.79-6.43-5.27-5.72-9.74-12.18-14.92-18.77a77.62,77.62,0,0,1,24.2-23.87c33.79-20.85,68.35-22,103.35-3.12,9.8,5.3,18,12.74,25.2,21.19,24.32,28.45,48.71,56.84,72.9,85.41,27.82,32.87,31.77,75.44,10.75,112.82-20.2,35.91-65.15,55.26-105.23,45.53a97.62,97.62,0,0,1-52.47-32q-36.15-42.16-72.16-84.44C290.33,949,289.81,948.25,288.7,946.82Z"/></g></g></svg>