<svg xmlns="http://www.w3.org/2000/svg" viewBox="0 0 836.6 1080"><g id="Layer_2" data-name="Layer 2"><g id="Layer_1-2" data-name="Layer 1"><path d="M766.78,820.58C704.53,917.93,537.33,882,505.86,776.81c-7.3,20.34-6.24,23.72,22.09,70.34-22.75-.75-72.19-32.48-103.56-74.54-26.6-35.66-51.74-73.94-68.89-114.7-16.76-39.83-22.58-84.27-33.28-127-33.38,41.59-75.05,76.37-129,92.11-26,7.59-53.6,9.59-78.48,13.78,11.48-36.39,23.17-69.16,32.05-102.67,11.36-42.84,24.21-84.68,55-121.82-20.25-1.76-37.39-1.62-53.84-4.95C72.35,392.09,16.91,329.28,3.63,246.79c-7.09-44-4.15-86.78,12-128.38A185.31,185.31,0,0,1,258.31,13.7c6.4,2.59,12.78,5.31,18.91,8.47C307.87,38,338,55.67,375.79,43.71c-10.45,30-29.77,39.22-61.57,32.05C288.69,70,263.3,62.23,237.42,59.71c-46.26-4.51-87.27,8.7-112.92,50.23-26.28,42.56-26.77,87.71-4.65,132.52,4.16,8.44,10.93,16.06,17.9,22.57,18.8,17.57,36.34,18.12,54.44-.87C209.76,245.72,223.83,224,241,205.09c20.34-22.42,40.07-46.37,64-64.34C361.46,98.46,424,102.29,478.37,146.5c6.4,5.2,15.54,9.28,23.66,9.77,74.51,4.56,127.67,40.89,160.36,107.15,40.74,82.55,84.55,163.2,140.43,236.71,7.09,9.33,15.52,17.64,22.93,26.74,16.17,19.85,14.13,41.85-5.17,58.66a24,24,0,0,1-4.94,3.77c-32.57,15.63-47.14,36.47-30.2,74.33,8.09,18.09-4.29,35.77-21.2,47.53-14.15,9.85-28.53,19.55-41.57,30.76-15.52,13.35-25.23,30.07-17,51.39,8.51,22.15,27.11,27.75,48.72,27.28C757.63,820.52,760.92,820.58,766.78,820.58Z"/><path d="M253.65,646.09c8.11,2.58,16.44,4.63,24.29,7.85,13.55,5.55,24.84,14.5,34.35,25.6q40.11,46.82,80.09,93.73c.25.31.45.67.92,1.38a8,8,0,0,1-1.93.1c-18.95-4.18-37.84-3.13-56.64.9-3.09.66-4.91-.06-6.93-2.46Q302,742.64,275.88,712.31c-19.48-22.6-51.35-24.33-72.33-4.09-17.38,16.76-19.66,44.83-5,64,4.87,6.37,10.26,12.35,15.47,18.45q33.39,39.13,66.84,78.21c17.91,20.82,47.63,23.93,68.47,7.4a7.45,7.45,0,0,0,1.26-1c3.21-3.94,6.81-6.36,12.42-5.88,7.29.62,14.41,1.09,20,6.53.87.85,1.78,1.68,2.58,2.6,4.38,5,8.74,10.07,13.2,15.22A84.39,84.39,0,0,1,374,918.9c-35.5,23.35-80,22.32-114.26-3a107.75,107.75,0,0,1-17-16.35c-26.15-30.27-52-60.8-78-91.19-15.3-17.87-23.88-38.37-24.7-62a19.05,19.05,0,0,0-.49-2.78l1.28-16.29c.38-1.29.82-2.57,1.13-3.88,9.18-38.51,32.67-63.65,70.67-74.71,8-2.32,16.5-2.66,24.78-3.91Z"/><path d="M291.78,956.94c4.91.77,8.87,1.45,12.84,2,15.43,2.16,30.68.55,45.78-2.64,3.44-.72,5.36.18,7.55,2.77q22.76,27,45.81,53.75c19.6,22.71,51.69,24.32,72.64,3.79,17-16.62,19.14-44.4,5-63.46q-1.58-2.13-3.3-4.16-36.57-42.84-73.19-85.66c-17.95-20.9-47.47-24.25-68.44-7.94-.53.41-1,.87-1.6,1.26-2.76,1.91-3.83,5.94-8.3,5.79-8.58-.3-17.57.49-24-6.51-5.33-5.77-9.84-12.31-15.08-19a78.61,78.61,0,0,1,24.46-24.12c34.15-21.08,69.08-22.28,104.45-3.16,9.91,5.36,18.17,12.88,25.47,21.42,24.59,28.76,49.24,57.45,73.68,86.33,28.12,33.21,32.11,76.24,10.86,114-20.41,36.3-65.84,55.85-106.35,46a98.63,98.63,0,0,1-53-32.35q-36.53-42.61-72.93-85.34C293.43,959.11,292.91,958.39,291.78,956.94Z"/></g></g></svg>